<?xml version="1.0" encoding="UTF-8" standalone="no"?>
<!DOCTYPE svg PUBLIC "-//W3C//DTD SVG 1.1//EN"
 "http://www.w3.org/Graphics/SVG/1.1/DTD/svg11.dtd">
<!-- Generated by graphviz version 2.43.0 (0)
 -->
<!-- Title: snakemake_dag Pages: 1 -->
<svg width="1589pt" height="692pt"
 viewBox="0.00 0.00 1588.90 692.00" xmlns="http://www.w3.org/2000/svg" xmlns:xlink="http://www.w3.org/1999/xlink">
<g id="graph0" class="graph" transform="scale(1 1) rotate(0) translate(4 688)">
<title>snakemake_dag</title>
<polygon fill="white" stroke="transparent" points="-4,4 -4,-688 1584.9,-688 1584.9,4 -4,4"/>
<!-- 0 -->
<g id="node1" class="node">
<title>0</title>
<path fill="none" stroke="#d8a456" stroke-width="2" d="M748.9,-36C748.9,-36 718.9,-36 718.9,-36 712.9,-36 706.9,-30 706.9,-24 706.9,-24 706.9,-12 706.9,-12 706.9,-6 712.9,0 718.9,0 718.9,0 748.9,0 748.9,0 754.9,0 760.9,-6 760.9,-12 760.9,-12 760.9,-24 760.9,-24 760.9,-30 754.9,-36 748.9,-36"/>
<text text-anchor="middle" x="733.9" y="-15.5" font-family="sans" font-size="10.00">all</text>
</g>
<!-- 1 -->
<g id="node2" class="node">
<title>1</title>
<path fill="none" stroke="#d8b456" stroke-width="2" d="M364.9,-396C364.9,-396 222.9,-396 222.9,-396 216.9,-396 210.9,-390 210.9,-384 210.9,-384 210.9,-372 210.9,-372 210.9,-366 216.9,-360 222.9,-360 222.9,-360 364.9,-360 364.9,-360 370.9,-360 376.9,-366 376.9,-372 376.9,-372 376.9,-384 376.9,-384 376.9,-390 370.9,-396 364.9,-396"/>
<text text-anchor="middle" x="293.9" y="-375.5" font-family="sans" font-size="10.00">annotation_format_conversion</text>
</g>
<!-- 1&#45;&gt;0 -->
<g id="edge16" class="edge">
<title>1&#45;&gt;0</title>
<path fill="none" stroke="grey" stroke-width="2" d="M278.49,-359.58C257.61,-334.1 222.9,-284.34 222.9,-235 222.9,-235 222.9,-235 222.9,-161 222.9,-120.55 211.86,-99.09 241.9,-72 275.55,-41.65 587.89,-25.33 696.72,-20.53"/>
<polygon fill="grey" stroke="grey" stroke-width="2" points="697.05,-24.01 706.89,-20.08 696.75,-17.02 697.05,-24.01"/>
</g>
<!-- 2 -->
<g id="node3" class="node">
<title>2</title>
<path fill="none" stroke="#c6d856" stroke-width="2" d="M633.4,-324C633.4,-324 532.4,-324 532.4,-324 526.4,-324 520.4,-318 520.4,-312 520.4,-312 520.4,-300 520.4,-300 520.4,-294 526.4,-288 532.4,-288 532.4,-288 633.4,-288 633.4,-288 639.4,-288 645.4,-294 645.4,-300 645.4,-300 645.4,-312 645.4,-312 645.4,-318 639.4,-324 633.4,-324"/>
<text text-anchor="middle" x="582.9" y="-303.5" font-family="sans" font-size="10.00">extract_transcriptome</text>
</g>
<!-- 1&#45;&gt;2 -->
<g id="edge23" class="edge">
<title>1&#45;&gt;2</title>
<path fill="none" stroke="grey" stroke-width="2" d="M364.23,-359.97C408.5,-349.24 465.51,-335.43 510.22,-324.6"/>
<polygon fill="grey" stroke="grey" stroke-width="2" points="511.25,-327.96 520.14,-322.2 509.6,-321.15 511.25,-327.96"/>
</g>
<!-- 2&#45;&gt;0 -->
<g id="edge14" class="edge">
<title>2&#45;&gt;0</title>
<path fill="none" stroke="grey" stroke-width="2" d="M580.56,-287.71C575.89,-245.99 569.81,-138.36 619.9,-72 638.47,-47.39 671.25,-33.81 696.91,-26.57"/>
<polygon fill="grey" stroke="grey" stroke-width="2" points="697.91,-29.92 706.7,-24.01 696.14,-23.15 697.91,-29.92"/>
</g>
<!-- 7 -->
<g id="node8" class="node">
<title>7</title>
<path fill="none" stroke="#70d856" stroke-width="2" d="M542.9,-252C542.9,-252 482.9,-252 482.9,-252 476.9,-252 470.9,-246 470.9,-240 470.9,-240 470.9,-228 470.9,-228 470.9,-222 476.9,-216 482.9,-216 482.9,-216 542.9,-216 542.9,-216 548.9,-216 554.9,-222 554.9,-228 554.9,-228 554.9,-240 554.9,-240 554.9,-246 548.9,-252 542.9,-252"/>
<text text-anchor="middle" x="512.9" y="-231.5" font-family="sans" font-size="10.00">kallisto_index</text>
</g>
<!-- 2&#45;&gt;7 -->
<g id="edge26" class="edge">
<title>2&#45;&gt;7</title>
<path fill="none" stroke="grey" stroke-width="2" d="M565.6,-287.7C557.03,-279.14 546.56,-268.66 537.2,-259.3"/>
<polygon fill="grey" stroke="grey" stroke-width="2" points="539.55,-256.7 530,-252.1 534.6,-261.65 539.55,-256.7"/>
</g>
<!-- 8 -->
<g id="node9" class="node">
<title>8</title>
<path fill="none" stroke="#56d8d8" stroke-width="2" d="M684.4,-252C684.4,-252 623.4,-252 623.4,-252 617.4,-252 611.4,-246 611.4,-240 611.4,-240 611.4,-228 611.4,-228 611.4,-222 617.4,-216 623.4,-216 623.4,-216 684.4,-216 684.4,-216 690.4,-216 696.4,-222 696.4,-228 696.4,-228 696.4,-240 696.4,-240 696.4,-246 690.4,-252 684.4,-252"/>
<text text-anchor="middle" x="653.9" y="-231.5" font-family="sans" font-size="10.00">salmon_index</text>
</g>
<!-- 2&#45;&gt;8 -->
<g id="edge27" class="edge">
<title>2&#45;&gt;8</title>
<path fill="none" stroke="grey" stroke-width="2" d="M600.45,-287.7C609.13,-279.14 619.76,-268.66 629.25,-259.3"/>
<polygon fill="grey" stroke="grey" stroke-width="2" points="631.89,-261.62 636.55,-252.1 626.97,-256.63 631.89,-261.62"/>
</g>
<!-- 3 -->
<g id="node4" class="node">
<title>3</title>
<path fill="none" stroke="#d8bc56" stroke-width="2" d="M1014.4,-468C1014.4,-468 927.4,-468 927.4,-468 921.4,-468 915.4,-462 915.4,-456 915.4,-456 915.4,-444 915.4,-444 915.4,-438 921.4,-432 927.4,-432 927.4,-432 1014.4,-432 1014.4,-432 1020.4,-432 1026.4,-438 1026.4,-444 1026.4,-444 1026.4,-456 1026.4,-456 1026.4,-462 1020.4,-468 1014.4,-468"/>
<text text-anchor="middle" x="970.9" y="-447.5" font-family="sans" font-size="10.00">convert_gff3_to_gtf</text>
</g>
<!-- 3&#45;&gt;2 -->
<g id="edge22" class="edge">
<title>3&#45;&gt;2</title>
<path fill="none" stroke="grey" stroke-width="2" d="M915.05,-434.81C878.5,-425.04 829.91,-411.13 787.9,-396 731.51,-375.69 668.54,-347.49 627.45,-328.31"/>
<polygon fill="grey" stroke="grey" stroke-width="2" points="628.8,-325.08 618.26,-324 625.83,-331.41 628.8,-325.08"/>
</g>
<!-- 15 -->
<g id="node16" class="node">
<title>15</title>
<path fill="none" stroke="#d87556" stroke-width="2" d="M801.4,-108C801.4,-108 666.4,-108 666.4,-108 660.4,-108 654.4,-102 654.4,-96 654.4,-96 654.4,-84 654.4,-84 654.4,-78 660.4,-72 666.4,-72 666.4,-72 801.4,-72 801.4,-72 807.4,-72 813.4,-78 813.4,-84 813.4,-84 813.4,-96 813.4,-96 813.4,-102 807.4,-108 801.4,-108"/>
<text text-anchor="middle" x="733.9" y="-87.5" font-family="sans" font-size="10.00">aggregate_salmon_summary</text>
</g>
<!-- 3&#45;&gt;15 -->
<g id="edge37" class="edge">
<title>3&#45;&gt;15</title>
<path fill="none" stroke="grey" stroke-width="2" d="M922.02,-431.9C872.1,-410.94 801.9,-370.23 801.9,-307 801.9,-307 801.9,-307 801.9,-233 801.9,-188.6 774.53,-143.38 754.51,-116.25"/>
<polygon fill="grey" stroke="grey" stroke-width="2" points="757.16,-113.95 748.32,-108.11 751.59,-118.18 757.16,-113.95"/>
</g>
<!-- 16 -->
<g id="node17" class="node">
<title>16</title>
<path fill="none" stroke="#9fd856" stroke-width="2" d="M1018.4,-396C1018.4,-396 923.4,-396 923.4,-396 917.4,-396 911.4,-390 911.4,-384 911.4,-384 911.4,-372 911.4,-372 911.4,-366 917.4,-360 923.4,-360 923.4,-360 1018.4,-360 1018.4,-360 1024.4,-360 1030.4,-366 1030.4,-372 1030.4,-372 1030.4,-384 1030.4,-384 1030.4,-390 1024.4,-396 1018.4,-396"/>
<text text-anchor="middle" x="970.9" y="-375.5" font-family="sans" font-size="10.00">featurecounts_single</text>
</g>
<!-- 3&#45;&gt;16 -->
<g id="edge38" class="edge">
<title>3&#45;&gt;16</title>
<path fill="none" stroke="grey" stroke-width="2" d="M970.9,-431.7C970.9,-423.98 970.9,-414.71 970.9,-406.11"/>
<polygon fill="grey" stroke="grey" stroke-width="2" points="974.4,-406.1 970.9,-396.1 967.4,-406.1 974.4,-406.1"/>
</g>
<!-- 20 -->
<g id="node21" class="node">
<title>20</title>
<path fill="none" stroke="#5692d8" stroke-width="2" d="M1197.9,-252C1197.9,-252 1127.9,-252 1127.9,-252 1121.9,-252 1115.9,-246 1115.9,-240 1115.9,-240 1115.9,-228 1115.9,-228 1115.9,-222 1121.9,-216 1127.9,-216 1127.9,-216 1197.9,-216 1197.9,-216 1203.9,-216 1209.9,-222 1209.9,-228 1209.9,-228 1209.9,-240 1209.9,-240 1209.9,-246 1203.9,-252 1197.9,-252"/>
<text text-anchor="middle" x="1162.9" y="-231.5" font-family="sans" font-size="10.00">stringtie_merge</text>
</g>
<!-- 3&#45;&gt;20 -->
<g id="edge44" class="edge">
<title>3&#45;&gt;20</title>
<path fill="none" stroke="grey" stroke-width="2" d="M998.39,-431.98C1012.06,-422.58 1028.11,-409.97 1039.9,-396 1074.89,-354.51 1062.35,-329.86 1096.9,-288 1105.92,-277.07 1117.51,-266.86 1128.45,-258.37"/>
<polygon fill="grey" stroke="grey" stroke-width="2" points="1130.73,-261.03 1136.64,-252.23 1126.54,-255.43 1130.73,-261.03"/>
</g>
<!-- 22 -->
<g id="node23" class="node">
<title>22</title>
<path fill="none" stroke="#569ad8" stroke-width="2" d="M1205.9,-396C1205.9,-396 1119.9,-396 1119.9,-396 1113.9,-396 1107.9,-390 1107.9,-384 1107.9,-384 1107.9,-372 1107.9,-372 1107.9,-366 1113.9,-360 1119.9,-360 1119.9,-360 1205.9,-360 1205.9,-360 1211.9,-360 1217.9,-366 1217.9,-372 1217.9,-372 1217.9,-384 1217.9,-384 1217.9,-390 1211.9,-396 1205.9,-396"/>
<text text-anchor="middle" x="1162.9" y="-375.5" font-family="sans" font-size="10.00">stringtie_assemble</text>
</g>
<!-- 3&#45;&gt;22 -->
<g id="edge47" class="edge">
<title>3&#45;&gt;22</title>
<path fill="none" stroke="grey" stroke-width="2" d="M1017.87,-431.88C1044.58,-422.14 1078.22,-409.87 1106.37,-399.61"/>
<polygon fill="grey" stroke="grey" stroke-width="2" points="1107.89,-402.78 1116.08,-396.07 1105.49,-396.21 1107.89,-402.78"/>
</g>
<!-- 4 -->
<g id="node5" class="node">
<title>4</title>
<path fill="none" stroke="#56d8d0" stroke-width="2" d="M462.9,-684C462.9,-684 384.9,-684 384.9,-684 378.9,-684 372.9,-678 372.9,-672 372.9,-672 372.9,-660 372.9,-660 372.9,-654 378.9,-648 384.9,-648 384.9,-648 462.9,-648 462.9,-648 468.9,-648 474.9,-654 474.9,-660 474.9,-660 474.9,-672 474.9,-672 474.9,-678 468.9,-684 462.9,-684"/>
<text text-anchor="middle" x="423.9" y="-663.5" font-family="sans" font-size="10.00">raw_reads_fastqc</text>
</g>
<!-- 4&#45;&gt;0 -->
<g id="edge18" class="edge">
<title>4&#45;&gt;0</title>
<path fill="none" stroke="grey" stroke-width="2" d="M475.18,-665.19C652.04,-665.41 1235.49,-662.19 1414.9,-612 1495.52,-589.45 1580.9,-606.71 1580.9,-523 1580.9,-523 1580.9,-523 1580.9,-161 1580.9,-114.73 1566.44,-96.03 1526.9,-72 1461.9,-32.5 920.64,-21.73 771.7,-19.5"/>
<polygon fill="grey" stroke="grey" stroke-width="2" points="771.32,-15.99 761.27,-19.34 771.22,-22.99 771.32,-15.99"/>
</g>
<!-- 5 -->
<g id="node6" class="node">
<title>5</title>
<path fill="none" stroke="#56d873" stroke-width="2" d="M477.4,-612C477.4,-612 370.4,-612 370.4,-612 364.4,-612 358.4,-606 358.4,-600 358.4,-600 358.4,-588 358.4,-588 358.4,-582 364.4,-576 370.4,-576 370.4,-576 477.4,-576 477.4,-576 483.4,-576 489.4,-582 489.4,-588 489.4,-588 489.4,-600 489.4,-600 489.4,-606 483.4,-612 477.4,-612"/>
<text text-anchor="middle" x="423.9" y="-591.5" font-family="sans" font-size="10.00">quality_trimming_fastp</text>
</g>
<!-- 4&#45;&gt;5 -->
<g id="edge24" class="edge">
<title>4&#45;&gt;5</title>
<path fill="none" stroke="grey" stroke-width="2" d="M423.9,-647.7C423.9,-639.98 423.9,-630.71 423.9,-622.11"/>
<polygon fill="grey" stroke="grey" stroke-width="2" points="427.4,-622.1 423.9,-612.1 420.4,-622.1 427.4,-622.1"/>
</g>
<!-- 26 -->
<g id="node27" class="node">
<title>26</title>
<path fill="none" stroke="#56d85b" stroke-width="2" d="M182.9,-108C182.9,-108 152.9,-108 152.9,-108 146.9,-108 140.9,-102 140.9,-96 140.9,-96 140.9,-84 140.9,-84 140.9,-78 146.9,-72 152.9,-72 152.9,-72 182.9,-72 182.9,-72 188.9,-72 194.9,-78 194.9,-84 194.9,-84 194.9,-96 194.9,-96 194.9,-102 188.9,-108 182.9,-108"/>
<text text-anchor="middle" x="167.9" y="-87.5" font-family="sans" font-size="10.00">multiqc</text>
</g>
<!-- 4&#45;&gt;26 -->
<g id="edge56" class="edge">
<title>4&#45;&gt;26</title>
<path fill="none" stroke="grey" stroke-width="2" d="M372.58,-658.74C260.11,-643.6 1.9,-600.4 1.9,-523 1.9,-523 1.9,-523 1.9,-233 1.9,-192.55 -5.7,-174.47 20.9,-144 48.7,-112.14 97.15,-99.43 130.79,-94.36"/>
<polygon fill="grey" stroke="grey" stroke-width="2" points="131.27,-97.83 140.71,-93.02 130.34,-90.89 131.27,-97.83"/>
</g>
<!-- 5&#45;&gt;0 -->
<g id="edge5" class="edge">
<title>5&#45;&gt;0</title>
<path fill="none" stroke="grey" stroke-width="2" d="M427.74,-575.61C433.3,-548.94 442.9,-496.27 442.9,-451 442.9,-451 442.9,-451 442.9,-305 442.9,-250.94 472.72,-108.17 512.9,-72 539.69,-47.88 640.83,-31.19 696.53,-23.61"/>
<polygon fill="grey" stroke="grey" stroke-width="2" points="697.25,-27.05 706.7,-22.26 696.33,-20.11 697.25,-27.05"/>
</g>
<!-- 6 -->
<g id="node7" class="node">
<title>6</title>
<path fill="none" stroke="#5663d8" stroke-width="2" d="M143.9,-180C143.9,-180 41.9,-180 41.9,-180 35.9,-180 29.9,-174 29.9,-168 29.9,-168 29.9,-156 29.9,-156 29.9,-150 35.9,-144 41.9,-144 41.9,-144 143.9,-144 143.9,-144 149.9,-144 155.9,-150 155.9,-156 155.9,-156 155.9,-168 155.9,-168 155.9,-174 149.9,-180 143.9,-180"/>
<text text-anchor="middle" x="92.9" y="-159.5" font-family="sans" font-size="10.00">trimmed_reads_fastqc</text>
</g>
<!-- 5&#45;&gt;6 -->
<g id="edge25" class="edge">
<title>5&#45;&gt;6</title>
<path fill="none" stroke="grey" stroke-width="2" d="M358.31,-587.14C292.05,-579.9 195.75,-565.32 168.9,-540 139.1,-511.89 144.9,-491.97 144.9,-451 144.9,-451 144.9,-451 144.9,-305 144.9,-262.49 124.1,-216.95 108.81,-189.22"/>
<polygon fill="grey" stroke="grey" stroke-width="2" points="111.66,-187.15 103.67,-180.19 105.57,-190.61 111.66,-187.15"/>
</g>
<!-- 11 -->
<g id="node12" class="node">
<title>11</title>
<path fill="none" stroke="#88d856" stroke-width="2" d="M1231.9,-540C1231.9,-540 1179.9,-540 1179.9,-540 1173.9,-540 1167.9,-534 1167.9,-528 1167.9,-528 1167.9,-516 1167.9,-516 1167.9,-510 1173.9,-504 1179.9,-504 1179.9,-504 1231.9,-504 1231.9,-504 1237.9,-504 1243.9,-510 1243.9,-516 1243.9,-516 1243.9,-528 1243.9,-528 1243.9,-534 1237.9,-540 1231.9,-540"/>
<text text-anchor="middle" x="1205.9" y="-519.5" font-family="sans" font-size="10.00">hisat2_align</text>
</g>
<!-- 5&#45;&gt;11 -->
<g id="edge30" class="edge">
<title>5&#45;&gt;11</title>
<path fill="none" stroke="grey" stroke-width="2" d="M489.56,-587.12C643.1,-573.38 1022.75,-539.39 1157.5,-527.33"/>
<polygon fill="grey" stroke="grey" stroke-width="2" points="1157.88,-530.81 1167.53,-526.43 1157.25,-523.84 1157.88,-530.81"/>
</g>
<!-- 12 -->
<g id="node13" class="node">
<title>12</title>
<path fill="none" stroke="#68d856" stroke-width="2" d="M434.4,-180C434.4,-180 373.4,-180 373.4,-180 367.4,-180 361.4,-174 361.4,-168 361.4,-168 361.4,-156 361.4,-156 361.4,-150 367.4,-144 373.4,-144 373.4,-144 434.4,-144 434.4,-144 440.4,-144 446.4,-150 446.4,-156 446.4,-156 446.4,-168 446.4,-168 446.4,-174 440.4,-180 434.4,-180"/>
<text text-anchor="middle" x="403.9" y="-159.5" font-family="sans" font-size="10.00">kallisto_quant</text>
</g>
<!-- 5&#45;&gt;12 -->
<g id="edge32" class="edge">
<title>5&#45;&gt;12</title>
<path fill="none" stroke="grey" stroke-width="2" d="M420.05,-575.61C414.5,-548.94 404.9,-496.27 404.9,-451 404.9,-451 404.9,-451 404.9,-305 404.9,-265 404.5,-218.65 404.2,-190.08"/>
<polygon fill="grey" stroke="grey" stroke-width="2" points="407.7,-190.01 404.1,-180.05 400.7,-190.09 407.7,-190.01"/>
</g>
<!-- 14 -->
<g id="node15" class="node">
<title>14</title>
<path fill="none" stroke="#56c9d8" stroke-width="2" d="M723.9,-180C723.9,-180 661.9,-180 661.9,-180 655.9,-180 649.9,-174 649.9,-168 649.9,-168 649.9,-156 649.9,-156 649.9,-150 655.9,-144 661.9,-144 661.9,-144 723.9,-144 723.9,-144 729.9,-144 735.9,-150 735.9,-156 735.9,-156 735.9,-168 735.9,-168 735.9,-174 729.9,-180 723.9,-180"/>
<text text-anchor="middle" x="692.9" y="-159.5" font-family="sans" font-size="10.00">salmon_quant</text>
</g>
<!-- 5&#45;&gt;14 -->
<g id="edge34" class="edge">
<title>5&#45;&gt;14</title>
<path fill="none" stroke="grey" stroke-width="2" d="M489.58,-590.23C578.15,-582.56 724.9,-554.28 724.9,-451 724.9,-451 724.9,-451 724.9,-305 724.9,-264.04 712.07,-218.02 702.66,-189.77"/>
<polygon fill="grey" stroke="grey" stroke-width="2" points="705.93,-188.53 699.37,-180.21 699.31,-190.8 705.93,-188.53"/>
</g>
<!-- 5&#45;&gt;26 -->
<g id="edge57" class="edge">
<title>5&#45;&gt;26</title>
<path fill="none" stroke="grey" stroke-width="2" d="M358.36,-583.19C287,-568.35 182.9,-532.71 182.9,-451 182.9,-451 182.9,-451 182.9,-305 182.9,-237.79 175.45,-159 171.05,-118.35"/>
<polygon fill="grey" stroke="grey" stroke-width="2" points="174.5,-117.72 169.92,-108.17 167.54,-118.49 174.5,-117.72"/>
</g>
<!-- 6&#45;&gt;0 -->
<g id="edge2" class="edge">
<title>6&#45;&gt;0</title>
<path fill="none" stroke="grey" stroke-width="2" d="M95.19,-143.65C98.94,-122.88 108.47,-88.83 131.9,-72 177.75,-39.07 572.02,-24.05 696.44,-20.1"/>
<polygon fill="grey" stroke="grey" stroke-width="2" points="696.73,-23.59 706.62,-19.78 696.51,-16.6 696.73,-23.59"/>
</g>
<!-- 6&#45;&gt;26 -->
<g id="edge55" class="edge">
<title>6&#45;&gt;26</title>
<path fill="none" stroke="grey" stroke-width="2" d="M111.44,-143.7C120.7,-135.05 132.06,-124.45 142.16,-115.03"/>
<polygon fill="grey" stroke="grey" stroke-width="2" points="144.65,-117.49 149.57,-108.1 139.87,-112.37 144.65,-117.49"/>
</g>
<!-- 7&#45;&gt;0 -->
<g id="edge19" class="edge">
<title>7&#45;&gt;0</title>
<path fill="none" stroke="grey" stroke-width="2" d="M509.95,-215.95C505.4,-183.55 500.61,-112.72 536.9,-72 557.95,-48.38 645.6,-31.91 696.61,-24.12"/>
<polygon fill="grey" stroke="grey" stroke-width="2" points="697.22,-27.57 706.6,-22.63 696.19,-20.64 697.22,-27.57"/>
</g>
<!-- 7&#45;&gt;12 -->
<g id="edge31" class="edge">
<title>7&#45;&gt;12</title>
<path fill="none" stroke="grey" stroke-width="2" d="M486.23,-215.88C472.11,-206.81 454.59,-195.55 439.34,-185.76"/>
<polygon fill="grey" stroke="grey" stroke-width="2" points="440.97,-182.65 430.67,-180.19 437.19,-188.54 440.97,-182.65"/>
</g>
<!-- 8&#45;&gt;0 -->
<g id="edge6" class="edge">
<title>8&#45;&gt;0</title>
<path fill="none" stroke="grey" stroke-width="2" d="M645.47,-215.57C631.71,-184.35 608.54,-117.9 635.9,-72 649.12,-49.81 675.22,-36.35 697.16,-28.55"/>
<polygon fill="grey" stroke="grey" stroke-width="2" points="698.48,-31.8 706.89,-25.35 696.29,-25.15 698.48,-31.8"/>
</g>
<!-- 8&#45;&gt;14 -->
<g id="edge35" class="edge">
<title>8&#45;&gt;14</title>
<path fill="none" stroke="grey" stroke-width="2" d="M663.54,-215.7C668.03,-207.64 673.46,-197.89 678.42,-188.98"/>
<polygon fill="grey" stroke="grey" stroke-width="2" points="681.56,-190.54 683.37,-180.1 675.44,-187.14 681.56,-190.54"/>
</g>
<!-- 9 -->
<g id="node10" class="node">
<title>9</title>
<path fill="none" stroke="#80d856" stroke-width="2" d="M1393.9,-612C1393.9,-612 1309.9,-612 1309.9,-612 1303.9,-612 1297.9,-606 1297.9,-600 1297.9,-600 1297.9,-588 1297.9,-588 1297.9,-582 1303.9,-576 1309.9,-576 1309.9,-576 1393.9,-576 1393.9,-576 1399.9,-576 1405.9,-582 1405.9,-588 1405.9,-588 1405.9,-600 1405.9,-600 1405.9,-606 1399.9,-612 1393.9,-612"/>
<text text-anchor="middle" x="1351.9" y="-591.5" font-family="sans" font-size="10.00">hisat2_build_index</text>
</g>
<!-- 9&#45;&gt;0 -->
<g id="edge15" class="edge">
<title>9&#45;&gt;0</title>
<path fill="none" stroke="grey" stroke-width="2" d="M1406.12,-578.12C1462.59,-558.93 1542.9,-519.59 1542.9,-451 1542.9,-451 1542.9,-451 1542.9,-161 1542.9,-116.06 1532.67,-96.36 1494.9,-72 1433.69,-32.52 915.69,-21.75 771.19,-19.51"/>
<polygon fill="grey" stroke="grey" stroke-width="2" points="771.11,-16.01 761.06,-19.35 771.01,-23 771.11,-16.01"/>
</g>
<!-- 9&#45;&gt;11 -->
<g id="edge29" class="edge">
<title>9&#45;&gt;11</title>
<path fill="none" stroke="grey" stroke-width="2" d="M1316.18,-575.88C1296.4,-566.39 1271.63,-554.51 1250.57,-544.42"/>
<polygon fill="grey" stroke="grey" stroke-width="2" points="1252.03,-541.24 1241.5,-540.07 1249,-547.55 1252.03,-541.24"/>
</g>
<!-- 10 -->
<g id="node11" class="node">
<title>10</title>
<path fill="none" stroke="#56c1d8" stroke-width="2" d="M1257.9,-468C1257.9,-468 1153.9,-468 1153.9,-468 1147.9,-468 1141.9,-462 1141.9,-456 1141.9,-456 1141.9,-444 1141.9,-444 1141.9,-438 1147.9,-432 1153.9,-432 1153.9,-432 1257.9,-432 1257.9,-432 1263.9,-432 1269.9,-438 1269.9,-444 1269.9,-444 1269.9,-456 1269.9,-456 1269.9,-462 1263.9,-468 1257.9,-468"/>
<text text-anchor="middle" x="1205.9" y="-447.5" font-family="sans" font-size="10.00">select_alignment_bam</text>
</g>
<!-- 10&#45;&gt;0 -->
<g id="edge21" class="edge">
<title>10&#45;&gt;0</title>
<path fill="none" stroke="grey" stroke-width="2" d="M1270.04,-446.17C1357.9,-438.46 1504.9,-410.15 1504.9,-307 1504.9,-307 1504.9,-307 1504.9,-161 1504.9,-117.81 1501.17,-96.92 1465.9,-72 1408.85,-31.7 912.43,-21.55 771.22,-19.47"/>
<polygon fill="grey" stroke="grey" stroke-width="2" points="770.97,-15.97 760.93,-19.32 770.87,-22.97 770.97,-15.97"/>
</g>
<!-- 10&#45;&gt;16 -->
<g id="edge39" class="edge">
<title>10&#45;&gt;16</title>
<path fill="none" stroke="grey" stroke-width="2" d="M1148.71,-431.97C1115.31,-422.01 1072.98,-409.41 1038,-398.99"/>
<polygon fill="grey" stroke="grey" stroke-width="2" points="1038.93,-395.61 1028.34,-396.11 1036.93,-402.32 1038.93,-395.61"/>
</g>
<!-- 19 -->
<g id="node20" class="node">
<title>19</title>
<path fill="none" stroke="#566bd8" stroke-width="2" d="M1359.9,-180C1359.9,-180 1255.9,-180 1255.9,-180 1249.9,-180 1243.9,-174 1243.9,-168 1243.9,-168 1243.9,-156 1243.9,-156 1243.9,-150 1249.9,-144 1255.9,-144 1255.9,-144 1359.9,-144 1359.9,-144 1365.9,-144 1371.9,-150 1371.9,-156 1371.9,-156 1371.9,-168 1371.9,-168 1371.9,-174 1365.9,-180 1359.9,-180"/>
<text text-anchor="middle" x="1307.9" y="-159.5" font-family="sans" font-size="10.00">stringtie_quantify_final</text>
</g>
<!-- 10&#45;&gt;19 -->
<g id="edge42" class="edge">
<title>10&#45;&gt;19</title>
<path fill="none" stroke="grey" stroke-width="2" d="M1212.89,-431.89C1217.07,-421.54 1222.42,-408.06 1226.9,-396 1254.53,-321.67 1284.56,-232.98 1299.07,-189.58"/>
<polygon fill="grey" stroke="grey" stroke-width="2" points="1302.41,-190.64 1302.25,-180.05 1295.77,-188.42 1302.41,-190.64"/>
</g>
<!-- 10&#45;&gt;22 -->
<g id="edge48" class="edge">
<title>10&#45;&gt;22</title>
<path fill="none" stroke="grey" stroke-width="2" d="M1195.27,-431.7C1190.27,-423.56 1184.21,-413.69 1178.69,-404.7"/>
<polygon fill="grey" stroke="grey" stroke-width="2" points="1181.62,-402.79 1173.41,-396.1 1175.66,-406.46 1181.62,-402.79"/>
</g>
<!-- 11&#45;&gt;10 -->
<g id="edge28" class="edge">
<title>11&#45;&gt;10</title>
<path fill="none" stroke="grey" stroke-width="2" d="M1205.9,-503.7C1205.9,-495.98 1205.9,-486.71 1205.9,-478.11"/>
<polygon fill="grey" stroke="grey" stroke-width="2" points="1209.4,-478.1 1205.9,-468.1 1202.4,-478.1 1209.4,-478.1"/>
</g>
<!-- 12&#45;&gt;0 -->
<g id="edge8" class="edge">
<title>12&#45;&gt;0</title>
<path fill="none" stroke="grey" stroke-width="2" d="M409.99,-143.91C418.23,-123.41 434.94,-89.62 460.9,-72 498.83,-46.25 630.74,-29.53 696.31,-22.62"/>
<polygon fill="grey" stroke="grey" stroke-width="2" points="697.03,-26.07 706.61,-21.56 696.31,-19.1 697.03,-26.07"/>
</g>
<!-- 13 -->
<g id="node14" class="node">
<title>13</title>
<path fill="none" stroke="#d86e56" stroke-width="2" d="M396.9,-108C396.9,-108 262.9,-108 262.9,-108 256.9,-108 250.9,-102 250.9,-96 250.9,-96 250.9,-84 250.9,-84 250.9,-78 256.9,-72 262.9,-72 262.9,-72 396.9,-72 396.9,-72 402.9,-72 408.9,-78 408.9,-84 408.9,-84 408.9,-96 408.9,-96 408.9,-102 402.9,-108 396.9,-108"/>
<text text-anchor="middle" x="329.9" y="-87.5" font-family="sans" font-size="10.00">aggregate_kallisto_summary</text>
</g>
<!-- 12&#45;&gt;13 -->
<g id="edge33" class="edge">
<title>12&#45;&gt;13</title>
<path fill="none" stroke="grey" stroke-width="2" d="M385.61,-143.7C376.47,-135.05 365.26,-124.45 355.3,-115.03"/>
<polygon fill="grey" stroke="grey" stroke-width="2" points="357.65,-112.43 347.98,-108.1 352.84,-117.52 357.65,-112.43"/>
</g>
<!-- 12&#45;&gt;26 -->
<g id="edge54" class="edge">
<title>12&#45;&gt;26</title>
<path fill="none" stroke="grey" stroke-width="2" d="M361.16,-148.32C316.52,-135.08 247.22,-114.53 204.87,-101.96"/>
<polygon fill="grey" stroke="grey" stroke-width="2" points="205.81,-98.59 195.22,-99.1 203.82,-105.3 205.81,-98.59"/>
</g>
<!-- 13&#45;&gt;0 -->
<g id="edge13" class="edge">
<title>13&#45;&gt;0</title>
<path fill="none" stroke="grey" stroke-width="2" d="M409.03,-74.47C413.72,-73.63 418.37,-72.8 422.9,-72 521.66,-54.56 638.24,-34.95 696.63,-25.2"/>
<polygon fill="grey" stroke="grey" stroke-width="2" points="697.55,-28.6 706.84,-23.5 696.4,-21.69 697.55,-28.6"/>
</g>
<!-- 14&#45;&gt;0 -->
<g id="edge11" class="edge">
<title>14&#45;&gt;0</title>
<path fill="none" stroke="grey" stroke-width="2" d="M671.63,-143.7C661.79,-134.31 651.14,-121.8 645.9,-108 640.22,-93.04 638.03,-85.93 645.9,-72 656.93,-52.47 678.36,-39.34 697.31,-31.03"/>
<polygon fill="grey" stroke="grey" stroke-width="2" points="698.7,-34.25 706.64,-27.23 696.06,-27.77 698.7,-34.25"/>
</g>
<!-- 14&#45;&gt;15 -->
<g id="edge36" class="edge">
<title>14&#45;&gt;15</title>
<path fill="none" stroke="grey" stroke-width="2" d="M703.03,-143.7C707.75,-135.64 713.46,-125.89 718.68,-116.98"/>
<polygon fill="grey" stroke="grey" stroke-width="2" points="721.85,-118.5 723.88,-108.1 715.81,-114.96 721.85,-118.5"/>
</g>
<!-- 15&#45;&gt;0 -->
<g id="edge17" class="edge">
<title>15&#45;&gt;0</title>
<path fill="none" stroke="grey" stroke-width="2" d="M733.9,-71.7C733.9,-63.98 733.9,-54.71 733.9,-46.11"/>
<polygon fill="grey" stroke="grey" stroke-width="2" points="737.4,-46.1 733.9,-36.1 730.4,-46.1 737.4,-46.1"/>
</g>
<!-- 16&#45;&gt;0 -->
<g id="edge9" class="edge">
<title>16&#45;&gt;0</title>
<path fill="none" stroke="grey" stroke-width="2" d="M938.43,-359.94C899.92,-337.09 840.9,-292.66 840.9,-235 840.9,-235 840.9,-235 840.9,-161 840.9,-120.64 846.24,-104.92 822.9,-72 810.06,-53.88 788.9,-40.91 770.43,-32.34"/>
<polygon fill="grey" stroke="grey" stroke-width="2" points="771.65,-29.05 761.08,-28.25 768.84,-35.46 771.65,-29.05"/>
</g>
<!-- 18 -->
<g id="node19" class="node">
<title>18</title>
<path fill="none" stroke="#d85e56" stroke-width="2" d="M1054.4,-180C1054.4,-180 887.4,-180 887.4,-180 881.4,-180 875.4,-174 875.4,-168 875.4,-168 875.4,-156 875.4,-156 875.4,-150 881.4,-144 887.4,-144 887.4,-144 1054.4,-144 1054.4,-144 1060.4,-144 1066.4,-150 1066.4,-156 1066.4,-156 1066.4,-168 1066.4,-168 1066.4,-174 1060.4,-180 1054.4,-180"/>
<text text-anchor="middle" x="970.9" y="-159.5" font-family="sans" font-size="10.00">aggregate_featurecounts_summary</text>
</g>
<!-- 16&#45;&gt;18 -->
<g id="edge41" class="edge">
<title>16&#45;&gt;18</title>
<path fill="none" stroke="grey" stroke-width="2" d="M970.9,-359.85C970.9,-322.83 970.9,-235.18 970.9,-190.39"/>
<polygon fill="grey" stroke="grey" stroke-width="2" points="974.4,-190.23 970.9,-180.23 967.4,-190.23 974.4,-190.23"/>
</g>
<!-- 17 -->
<g id="node18" class="node">
<title>17</title>
<path fill="none" stroke="#d85656" stroke-width="2" d="M1034.4,-108C1034.4,-108 919.4,-108 919.4,-108 913.4,-108 907.4,-102 907.4,-96 907.4,-96 907.4,-84 907.4,-84 907.4,-78 913.4,-72 919.4,-72 919.4,-72 1034.4,-72 1034.4,-72 1040.4,-72 1046.4,-78 1046.4,-84 1046.4,-84 1046.4,-96 1046.4,-96 1046.4,-102 1040.4,-108 1034.4,-108"/>
<text text-anchor="middle" x="976.9" y="-87.5" font-family="sans" font-size="10.00">aggregate_featurecounts</text>
</g>
<!-- 17&#45;&gt;0 -->
<g id="edge1" class="edge">
<title>17&#45;&gt;0</title>
<path fill="none" stroke="grey" stroke-width="2" d="M917.77,-71.97C871.98,-58.78 809.99,-40.92 770.98,-29.68"/>
<polygon fill="grey" stroke="grey" stroke-width="2" points="771.67,-26.24 761.09,-26.83 769.73,-32.97 771.67,-26.24"/>
</g>
<!-- 18&#45;&gt;0 -->
<g id="edge12" class="edge">
<title>18&#45;&gt;0</title>
<path fill="none" stroke="grey" stroke-width="2" d="M947,-143.88C932.87,-133.64 914.71,-120.28 898.9,-108 878.94,-92.51 876.45,-85.19 854.9,-72 828.13,-55.62 795.41,-41.6 770.75,-32.11"/>
<polygon fill="grey" stroke="grey" stroke-width="2" points="771.97,-28.83 761.38,-28.57 769.5,-35.38 771.97,-28.83"/>
</g>
<!-- 18&#45;&gt;17 -->
<g id="edge40" class="edge">
<title>18&#45;&gt;17</title>
<path fill="none" stroke="grey" stroke-width="2" d="M972.38,-143.7C973.04,-135.98 973.84,-126.71 974.57,-118.11"/>
<polygon fill="grey" stroke="grey" stroke-width="2" points="978.07,-118.37 975.43,-108.1 971.09,-117.77 978.07,-118.37"/>
</g>
<!-- 19&#45;&gt;0 -->
<g id="edge20" class="edge">
<title>19&#45;&gt;0</title>
<path fill="none" stroke="grey" stroke-width="2" d="M1372.21,-145.05C1422.02,-129.78 1477.88,-104.29 1447.9,-72 1401.58,-22.12 911.79,-18.8 771.35,-18.88"/>
<polygon fill="grey" stroke="grey" stroke-width="2" points="771.09,-15.38 761.1,-18.89 771.1,-22.38 771.09,-15.38"/>
</g>
<!-- 24 -->
<g id="node25" class="node">
<title>24</title>
<path fill="none" stroke="#d88d56" stroke-width="2" d="M1426.9,-108C1426.9,-108 1286.9,-108 1286.9,-108 1280.9,-108 1274.9,-102 1274.9,-96 1274.9,-96 1274.9,-84 1274.9,-84 1274.9,-78 1280.9,-72 1286.9,-72 1286.9,-72 1426.9,-72 1426.9,-72 1432.9,-72 1438.9,-78 1438.9,-84 1438.9,-84 1438.9,-96 1438.9,-96 1438.9,-102 1432.9,-108 1426.9,-108"/>
<text text-anchor="middle" x="1356.9" y="-87.5" font-family="sans" font-size="10.00">aggregate_stringtie_summary</text>
</g>
<!-- 19&#45;&gt;24 -->
<g id="edge51" class="edge">
<title>19&#45;&gt;24</title>
<path fill="none" stroke="grey" stroke-width="2" d="M1320.01,-143.7C1325.77,-135.47 1332.76,-125.48 1339.1,-116.42"/>
<polygon fill="grey" stroke="grey" stroke-width="2" points="1342.06,-118.3 1344.93,-108.1 1336.32,-114.29 1342.06,-118.3"/>
</g>
<!-- 25 -->
<g id="node26" class="node">
<title>25</title>
<path fill="none" stroke="#d88556" stroke-width="2" d="M1244.9,-108C1244.9,-108 1114.9,-108 1114.9,-108 1108.9,-108 1102.9,-102 1102.9,-96 1102.9,-96 1102.9,-84 1102.9,-84 1102.9,-78 1108.9,-72 1114.9,-72 1114.9,-72 1244.9,-72 1244.9,-72 1250.9,-72 1256.9,-78 1256.9,-84 1256.9,-84 1256.9,-96 1256.9,-96 1256.9,-102 1250.9,-108 1244.9,-108"/>
<text text-anchor="middle" x="1179.9" y="-87.5" font-family="sans" font-size="10.00">aggregate_stringtie_original</text>
</g>
<!-- 19&#45;&gt;25 -->
<g id="edge53" class="edge">
<title>19&#45;&gt;25</title>
<path fill="none" stroke="grey" stroke-width="2" d="M1276.59,-143.88C1259.7,-134.64 1238.65,-123.13 1220.51,-113.21"/>
<polygon fill="grey" stroke="grey" stroke-width="2" points="1221.78,-109.92 1211.33,-108.19 1218.43,-116.06 1221.78,-109.92"/>
</g>
<!-- 20&#45;&gt;19 -->
<g id="edge43" class="edge">
<title>20&#45;&gt;19</title>
<path fill="none" stroke="grey" stroke-width="2" d="M1198.37,-215.88C1218.02,-206.39 1242.62,-194.51 1263.53,-184.42"/>
<polygon fill="grey" stroke="grey" stroke-width="2" points="1265.06,-187.57 1272.54,-180.07 1262.02,-181.26 1265.06,-187.57"/>
</g>
<!-- 23 -->
<g id="node24" class="node">
<title>23</title>
<path fill="none" stroke="#ced856" stroke-width="2" d="M1213.4,-180C1213.4,-180 1112.4,-180 1112.4,-180 1106.4,-180 1100.4,-174 1100.4,-168 1100.4,-168 1100.4,-156 1100.4,-156 1100.4,-150 1106.4,-144 1112.4,-144 1112.4,-144 1213.4,-144 1213.4,-144 1219.4,-144 1225.4,-150 1225.4,-156 1225.4,-156 1225.4,-168 1225.4,-168 1225.4,-174 1219.4,-180 1213.4,-180"/>
<text text-anchor="middle" x="1162.9" y="-159.5" font-family="sans" font-size="10.00">create_gene_mapping</text>
</g>
<!-- 20&#45;&gt;23 -->
<g id="edge49" class="edge">
<title>20&#45;&gt;23</title>
<path fill="none" stroke="grey" stroke-width="2" d="M1162.9,-215.7C1162.9,-207.98 1162.9,-198.71 1162.9,-190.11"/>
<polygon fill="grey" stroke="grey" stroke-width="2" points="1166.4,-190.1 1162.9,-180.1 1159.4,-190.1 1166.4,-190.1"/>
</g>
<!-- 21 -->
<g id="node22" class="node">
<title>21</title>
<path fill="none" stroke="#5682d8" stroke-width="2" d="M1207.9,-324C1207.9,-324 1117.9,-324 1117.9,-324 1111.9,-324 1105.9,-318 1105.9,-312 1105.9,-312 1105.9,-300 1105.9,-300 1105.9,-294 1111.9,-288 1117.9,-288 1117.9,-288 1207.9,-288 1207.9,-288 1213.9,-288 1219.9,-294 1219.9,-300 1219.9,-300 1219.9,-312 1219.9,-312 1219.9,-318 1213.9,-324 1207.9,-324"/>
<text text-anchor="middle" x="1162.9" y="-303.5" font-family="sans" font-size="10.00">stringtie_merge_list</text>
</g>
<!-- 21&#45;&gt;20 -->
<g id="edge45" class="edge">
<title>21&#45;&gt;20</title>
<path fill="none" stroke="grey" stroke-width="2" d="M1162.9,-287.7C1162.9,-279.98 1162.9,-270.71 1162.9,-262.11"/>
<polygon fill="grey" stroke="grey" stroke-width="2" points="1166.4,-262.1 1162.9,-252.1 1159.4,-262.1 1166.4,-262.1"/>
</g>
<!-- 22&#45;&gt;21 -->
<g id="edge46" class="edge">
<title>22&#45;&gt;21</title>
<path fill="none" stroke="grey" stroke-width="2" d="M1162.9,-359.7C1162.9,-351.98 1162.9,-342.71 1162.9,-334.11"/>
<polygon fill="grey" stroke="grey" stroke-width="2" points="1166.4,-334.1 1162.9,-324.1 1159.4,-334.1 1166.4,-334.1"/>
</g>
<!-- 23&#45;&gt;0 -->
<g id="edge7" class="edge">
<title>23&#45;&gt;0</title>
<path fill="none" stroke="grey" stroke-width="2" d="M1139.43,-143.92C1125.85,-133.8 1108.6,-120.55 1093.9,-108 1076.21,-92.89 1076.74,-82.34 1055.9,-72 961.15,-24.97 833.34,-18.35 771.08,-18.21"/>
<polygon fill="grey" stroke="grey" stroke-width="2" points="770.94,-14.71 760.96,-18.24 770.97,-21.71 770.94,-14.71"/>
</g>
<!-- 23&#45;&gt;24 -->
<g id="edge50" class="edge">
<title>23&#45;&gt;24</title>
<path fill="none" stroke="grey" stroke-width="2" d="M1210.36,-143.88C1237.47,-134.09 1271.63,-121.77 1300.16,-111.47"/>
<polygon fill="grey" stroke="grey" stroke-width="2" points="1301.38,-114.75 1309.6,-108.07 1299,-108.17 1301.38,-114.75"/>
</g>
<!-- 23&#45;&gt;25 -->
<g id="edge52" class="edge">
<title>23&#45;&gt;25</title>
<path fill="none" stroke="grey" stroke-width="2" d="M1167.1,-143.7C1169,-135.9 1171.28,-126.51 1173.38,-117.83"/>
<polygon fill="grey" stroke="grey" stroke-width="2" points="1176.79,-118.65 1175.74,-108.1 1169.98,-117 1176.79,-118.65"/>
</g>
<!-- 24&#45;&gt;0 -->
<g id="edge4" class="edge">
<title>24&#45;&gt;0</title>
<path fill="none" stroke="grey" stroke-width="2" d="M1274.61,-73.3C1271.67,-72.85 1268.76,-72.41 1265.9,-72 1081.11,-45.58 858.33,-27.96 771.3,-21.62"/>
<polygon fill="grey" stroke="grey" stroke-width="2" points="771.35,-18.12 761.13,-20.89 770.85,-25.1 771.35,-18.12"/>
</g>
<!-- 25&#45;&gt;0 -->
<g id="edge10" class="edge">
<title>25&#45;&gt;0</title>
<path fill="none" stroke="grey" stroke-width="2" d="M1102.49,-74.34C1097.89,-73.53 1093.34,-72.75 1088.9,-72 973.35,-52.59 836.02,-33.1 771.25,-24.12"/>
<polygon fill="grey" stroke="grey" stroke-width="2" points="771.5,-20.62 761.12,-22.72 770.55,-27.56 771.5,-20.62"/>
</g>
<!-- 26&#45;&gt;0 -->
<g id="edge3" class="edge">
<title>26&#45;&gt;0</title>
<path fill="none" stroke="grey" stroke-width="2" d="M195.31,-76.35C199.78,-74.66 204.42,-73.13 208.9,-72 387.55,-26.98 609.51,-19.99 696.48,-19.06"/>
<polygon fill="grey" stroke="grey" stroke-width="2" points="696.68,-22.55 706.65,-18.97 696.62,-15.56 696.68,-22.55"/>
</g>
</g>
</svg>
